<svg width="18" height="17" viewBox="0 0 18 17" fill="none" xmlns="http://www.w3.org/2000/svg">
<path d="M10.2673 1.20367C9.96736 0.917984 9.49262 0.929527 9.20694 1.22945C8.92125 1.52938 8.93279 2.00411 9.23272 2.2898L15.484 8.24429L0.75 8.24429C0.335787 8.24429 0 8.58008 0 8.99429C0 9.40851 0.335787 9.74429 0.75 9.74429H15.4844L9.23272 15.6991C8.93279 15.9848 8.92125 16.4595 9.20694 16.7595C9.49262 17.0594 9.96736 17.0709 10.2673 16.7853L17.6862 9.71855C17.8553 9.55753 17.9552 9.35211 17.9861 9.13857C17.9952 9.09188 18 9.04364 18 8.99429C18 8.9446 17.9952 8.89603 17.9859 8.84904C17.9548 8.63597 17.8549 8.43106 17.6862 8.27037L10.2673 1.20367Z" fill="black" fill-opacity="0.6"/>
</svg>
