<svg width="329" height="194" viewBox="0 0 329 194" fill="none" xmlns="http://www.w3.org/2000/svg">
<mask id="mask0_411_988" style="mask-type:alpha" maskUnits="userSpaceOnUse" x="0" y="0" width="329" height="194">
<rect width="329" height="194" rx="12" fill="url(#paint0_radial_411_988)"/>
<rect width="329" height="194" rx="12" fill="white" fill-opacity="0.5"/>
</mask>
<g mask="url(#mask0_411_988)">
<rect width="329" height="194" rx="12" fill="url(#paint1_radial_411_988)"/>
<rect width="329" height="194" rx="12" fill="white" fill-opacity="0.5"/>
<path d="M73.5 190C73.5 223.354 42.6709 250.5 4.5 250.5C-33.6709 250.5 -64.5 223.354 -64.5 190C-64.5 156.646 -33.6709 129.5 4.5 129.5C42.6709 129.5 73.5 156.646 73.5 190Z" stroke="url(#paint2_linear_411_988)"/>
<path d="M66.5 190C66.5 220.041 38.8036 244.5 4.5 244.5C-29.8036 244.5 -57.5 220.041 -57.5 190C-57.5 159.959 -29.8036 135.5 4.5 135.5C38.8036 135.5 66.5 159.959 66.5 190Z" stroke="url(#paint3_linear_411_988)"/>
<path d="M59.5 190C59.5 216.168 34.9463 237.5 4.5 237.5C-25.9463 237.5 -50.5 216.168 -50.5 190C-50.5 163.832 -25.9463 142.5 4.5 142.5C34.9463 142.5 59.5 163.832 59.5 190Z" stroke="url(#paint4_linear_411_988)"/>
<path d="M350.5 -20C350.5 29.4044 308.217 69.5 256 69.5C203.783 69.5 161.5 29.4044 161.5 -20C161.5 -69.4044 203.783 -109.5 256 -109.5C308.217 -109.5 350.5 -69.4044 350.5 -20Z" stroke="url(#paint5_linear_411_988)"/>
<path d="M340.5 -20C340.5 24.576 302.69 60.75 256 60.75C209.31 60.75 171.5 24.576 171.5 -20C171.5 -64.576 209.31 -100.75 256 -100.75C302.69 -100.75 340.5 -64.576 340.5 -20Z" stroke="url(#paint6_linear_411_988)"/>
<path d="M331.75 -20C331.75 19.0427 297.868 50.75 256 50.75C214.132 50.75 180.25 19.0427 180.25 -20C180.25 -59.0427 214.132 -90.75 256 -90.75C297.868 -90.75 331.75 -59.0427 331.75 -20Z" stroke="url(#paint7_linear_411_988)"/>
</g>
<rect x="24.5" y="102.5" width="280" height="78" rx="7.5" fill="white"/>
<path d="M69.6561 113H67.9995V156H69.6561V113Z" fill="black"/>
<path d="M71.3132 113H70.4849V156H71.3132V113Z" fill="black"/>
<path d="M73.7981 113H72.9697V156H73.7981V113Z" fill="black"/>
<path d="M77.9392 113H77.1108V156H77.9392V113Z" fill="black"/>
<path d="M81.2517 113H80.4233V156H81.2517V113Z" fill="black"/>
<path d="M83.7381 113H82.0815V156H83.7381V113Z" fill="black"/>
<path d="M87.0515 113H86.2231V156H87.0515V113Z" fill="black"/>
<path d="M91.192 113H88.707V156H91.192V113Z" fill="black"/>
<path d="M94.5062 113H92.8496V156H94.5062V113Z" fill="black"/>
<path d="M96.1629 113H95.3345V156H96.1629V113Z" fill="black"/>
<path d="M99.4767 113H96.9917V156H99.4767V113Z" fill="black"/>
<path d="M103.619 113H100.305V156H103.619V113Z" fill="black"/>
<path d="M105.274 113H104.445V156H105.274V113Z" fill="black"/>
<path d="M108.589 113H106.104V156H108.589V113Z" fill="black"/>
<path d="M112.729 113H111.073V156H112.729V113Z" fill="black"/>
<path d="M115.216 113H113.559V156H115.216V113Z" fill="black"/>
<path d="M118.528 113H117.699V156H118.528V113Z" fill="black"/>
<path d="M121.013 113H120.185V156H121.013V113Z" fill="black"/>
<path d="M123.497 113H122.669V156H123.497V113Z" fill="black"/>
<path d="M127.64 113H124.326V156H127.64V113Z" fill="black"/>
<path d="M130.952 113H128.467V156H130.952V113Z" fill="black"/>
<path d="M133.437 113H131.78V156H133.437V113Z" fill="black"/>
<path d="M135.921 113H134.265V156H135.921V113Z" fill="black"/>
<path d="M139.235 113H137.579V156H139.235V113Z" fill="black"/>
<path d="M143.377 113H140.892V156H143.377V113Z" fill="black"/>
<path d="M145.033 113H144.205V156H145.033V113Z" fill="black"/>
<path d="M147.518 113H145.861V156H147.518V113Z" fill="black"/>
<path d="M151.661 113H150.004V156H151.661V113Z" fill="black"/>
<path d="M154.974 113H154.146V156H154.974V113Z" fill="black"/>
<path d="M158.288 113H157.46V156H158.288V113Z" fill="black"/>
<path d="M161.601 113H159.116V156H161.601V113Z" fill="black"/>
<path d="M164.913 113H162.428V156H164.913V113Z" fill="black"/>
<path d="M167.399 113H165.742V156H167.399V113Z" fill="black"/>
<path d="M169.883 113H168.226V156H169.883V113Z" fill="black"/>
<path d="M172.369 113H170.712V156H172.369V113Z" fill="black"/>
<path d="M175.682 113H174.026V156H175.682V113Z" fill="black"/>
<path d="M178.168 113H177.34V156H178.168V113Z" fill="black"/>
<path d="M180.652 113H178.996V156H180.652V113Z" fill="black"/>
<path d="M183.965 113H183.137V156H183.965V113Z" fill="black"/>
<path d="M187.279 113H186.451V156H187.279V113Z" fill="black"/>
<path d="M192.249 113H190.593V156H192.249V113Z" fill="black"/>
<path d="M193.907 113H193.078V156H193.907V113Z" fill="black"/>
<path d="M196.391 113H195.563V156H196.391V113Z" fill="black"/>
<path d="M198.876 113H198.048V156H198.876V113Z" fill="black"/>
<path d="M201.361 113H199.704V156H201.361V113Z" fill="black"/>
<path d="M207.988 113H204.674V156H207.988V113Z" fill="black"/>
<path d="M211.3 113H208.815V156H211.3V113Z" fill="black"/>
<path d="M212.958 113H212.129V156H212.958V113Z" fill="black"/>
<path d="M214.615 113H213.786V156H214.615V113Z" fill="black"/>
<path d="M220.412 113H217.099V156H220.412V113Z" fill="black"/>
<path d="M222.068 113H221.239V156H222.068V113Z" fill="black"/>
<path d="M224.553 113H222.896V156H224.553V113Z" fill="black"/>
<path d="M228.695 113H227.867V156H228.695V113Z" fill="black"/>
<path d="M230.351 113H229.522V156H230.351V113Z" fill="black"/>
<path d="M232.836 113H232.007V156H232.836V113Z" fill="black"/>
<path d="M236.977 113H236.149V156H236.977V113Z" fill="black"/>
<path d="M240.292 113H238.635V156H240.292V113Z" fill="black"/>
<path d="M241.948 113H241.12V156H241.948V113Z" fill="black"/>
<path d="M243.606 113H242.777V156H243.606V113Z" fill="black"/>
<path d="M248.576 113H246.919V156H248.576V113Z" fill="black"/>
<path d="M251.889 113H250.232V156H251.889V113Z" fill="black"/>
<path d="M256.859 113H254.375V156H256.859V113Z" fill="black"/>
<path d="M258.515 113H257.687V156H258.515V113Z" fill="black"/>
<path d="M261 113H259.343V156H261V113Z" fill="black"/>
<path d="M142.096 171H143.482C143.783 171 144.039 170.953 144.252 170.859C144.465 170.764 144.628 170.628 144.742 170.452C144.857 170.274 144.914 170.062 144.914 169.816V169.811C144.914 169.625 144.875 169.46 144.797 169.315C144.721 169.169 144.613 169.05 144.472 168.958C144.331 168.866 144.164 168.809 143.971 168.785V168.738C144.108 168.713 144.231 168.656 144.34 168.568C144.45 168.48 144.537 168.372 144.601 168.243C144.667 168.114 144.701 167.977 144.701 167.83V167.824C144.701 167.609 144.65 167.424 144.548 167.268C144.449 167.109 144.305 166.987 144.118 166.901C143.932 166.815 143.709 166.772 143.45 166.772H142.096V167.238H143.338C143.6 167.238 143.803 167.298 143.948 167.417C144.094 167.534 144.167 167.7 144.167 167.915V167.921C144.167 168.144 144.086 168.312 143.924 168.425C143.764 168.538 143.524 168.595 143.204 168.595H142.096V169.049H143.353C143.578 169.049 143.765 169.076 143.915 169.131C144.068 169.186 144.182 169.268 144.258 169.377C144.334 169.486 144.372 169.622 144.372 169.784V169.79C144.372 170.032 144.29 170.217 144.126 170.344C143.962 170.471 143.721 170.534 143.403 170.534H142.096V171ZM141.832 171H142.36V166.772H141.832V171ZM146.743 171H147.27V166.772H146.745L145.62 167.581V168.138L146.696 167.358H146.743V171ZM150.422 171H150.938V170.124H151.538V169.652H150.938V166.772H150.173C150.054 166.948 149.933 167.13 149.81 167.317C149.689 167.505 149.567 167.695 149.444 167.889C149.321 168.082 149.198 168.277 149.075 168.475C148.954 168.67 148.833 168.866 148.714 169.063C148.595 169.259 148.478 169.452 148.363 169.644V170.124H150.422V171ZM148.902 169.655V169.62C148.994 169.464 149.088 169.306 149.186 169.146C149.286 168.983 149.386 168.821 149.488 168.659C149.589 168.497 149.691 168.336 149.792 168.176C149.896 168.016 149.997 167.859 150.097 167.707C150.197 167.553 150.294 167.404 150.39 167.262H150.425V169.655H148.902ZM153.847 171.1C154.132 171.1 154.386 171.037 154.609 170.912C154.831 170.785 155.006 170.612 155.133 170.394C155.262 170.175 155.327 169.925 155.327 169.644V169.638C155.327 169.366 155.266 169.124 155.145 168.911C155.026 168.698 154.862 168.53 154.653 168.407C154.444 168.284 154.206 168.223 153.941 168.223C153.751 168.223 153.581 168.253 153.431 168.313C153.281 168.374 153.154 168.454 153.05 168.554C152.947 168.653 152.869 168.761 152.816 168.876H152.713V169.638H152.886V169.635C152.886 169.451 152.928 169.288 153.012 169.146C153.098 169.001 153.213 168.888 153.358 168.806C153.504 168.724 153.668 168.683 153.85 168.683C154.034 168.683 154.197 168.725 154.339 168.809C154.482 168.891 154.593 169.005 154.673 169.151C154.755 169.296 154.796 169.462 154.796 169.649V169.655C154.796 169.837 154.753 170.002 154.667 170.15C154.583 170.299 154.469 170.417 154.325 170.505C154.18 170.591 154.019 170.634 153.841 170.634C153.663 170.634 153.502 170.59 153.358 170.502C153.213 170.412 153.098 170.292 153.012 170.142C152.928 169.991 152.886 169.823 152.886 169.638L152.76 168.935C152.76 168.907 152.76 168.881 152.76 168.855C152.76 168.828 152.761 168.802 152.763 168.776C152.775 168.481 152.819 168.211 152.895 167.965C152.973 167.717 153.092 167.519 153.252 167.37C153.412 167.22 153.62 167.145 153.876 167.145C154.019 167.145 154.146 167.168 154.257 167.215C154.37 167.262 154.466 167.328 154.544 167.414C154.624 167.498 154.686 167.6 154.729 167.719L154.741 167.751H155.271L155.262 167.713C155.215 167.504 155.127 167.322 154.998 167.168C154.871 167.012 154.712 166.891 154.521 166.805C154.331 166.717 154.119 166.673 153.882 166.673C153.54 166.673 153.248 166.764 153.006 166.945C152.764 167.125 152.579 167.386 152.45 167.728C152.321 168.067 152.256 168.478 152.256 168.958V168.964C152.256 169.362 152.302 169.698 152.394 169.972C152.486 170.243 152.608 170.462 152.76 170.628C152.914 170.794 153.085 170.914 153.273 170.988C153.462 171.062 153.654 171.1 153.847 171.1ZM157.207 171H157.735V166.772H157.21L156.085 167.581V168.138L157.161 167.358H157.207V171ZM159.991 171H160.518V166.772H159.994L158.869 167.581V168.138L159.944 167.358H159.991V171ZM164.716 171H165.238L166.796 166.772H166.243L165 170.317H164.954L163.711 166.772H163.158L164.716 171ZM167.537 171H168.065V166.772H167.537V171ZM169.407 169.491H170.737C171.002 169.491 171.237 169.434 171.44 169.318C171.643 169.203 171.802 169.043 171.917 168.838C172.035 168.633 172.093 168.396 172.093 168.129V168.123C172.093 167.855 172.035 167.62 171.917 167.417C171.802 167.214 171.643 167.056 171.44 166.942C171.237 166.829 171.002 166.772 170.737 166.772H169.407V167.241H170.602C170.905 167.241 171.139 167.319 171.305 167.476C171.471 167.632 171.554 167.85 171.554 168.129V168.135C171.554 168.412 171.471 168.63 171.305 168.788C171.139 168.944 170.905 169.022 170.602 169.022H169.407V169.491ZM169.143 171H169.67V166.772H169.143V171ZM176.397 171.1C176.666 171.1 176.912 171.059 177.132 170.977C177.353 170.895 177.542 170.777 177.701 170.625C177.859 170.471 177.98 170.287 178.064 170.074C178.15 169.861 178.193 169.625 178.193 169.365V168.85H176.479V169.312H177.665V169.415C177.665 169.653 177.613 169.862 177.507 170.042C177.402 170.222 177.253 170.362 177.062 170.464C176.872 170.563 176.652 170.613 176.4 170.613C176.187 170.613 175.995 170.573 175.826 170.493C175.656 170.413 175.51 170.299 175.389 170.15C175.27 170 175.178 169.818 175.114 169.605C175.051 169.393 175.02 169.153 175.02 168.888V168.882C175.02 168.532 175.077 168.229 175.19 167.971C175.303 167.713 175.462 167.514 175.667 167.373C175.874 167.23 176.118 167.159 176.397 167.159C176.711 167.159 176.973 167.231 177.182 167.376C177.391 167.521 177.538 167.729 177.624 168.003L177.633 168.032H178.166L178.161 168.003C178.106 167.735 177.998 167.502 177.838 167.303C177.68 167.104 177.478 166.949 177.232 166.84C176.988 166.729 176.709 166.673 176.397 166.673C176.012 166.673 175.675 166.765 175.386 166.948C175.099 167.13 174.876 167.387 174.718 167.719C174.56 168.049 174.481 168.437 174.481 168.882V168.888C174.481 169.226 174.526 169.53 174.616 169.802C174.705 170.073 174.833 170.306 174.999 170.499C175.167 170.692 175.369 170.841 175.603 170.944C175.839 171.048 176.104 171.1 176.397 171.1ZM180.903 171.1C181.305 171.1 181.651 171.009 181.94 170.827C182.231 170.646 182.454 170.39 182.608 170.06C182.764 169.728 182.842 169.337 182.842 168.888V168.882C182.842 168.431 182.764 168.04 182.608 167.71C182.452 167.378 182.228 167.122 181.937 166.942C181.648 166.763 181.303 166.673 180.903 166.673C180.504 166.673 180.16 166.763 179.869 166.942C179.579 167.122 179.356 167.377 179.198 167.707C179.041 168.037 178.963 168.429 178.963 168.882V168.888C178.963 169.337 179.04 169.728 179.195 170.06C179.351 170.392 179.574 170.648 179.863 170.83C180.152 171.01 180.498 171.1 180.903 171.1ZM180.903 170.613C180.61 170.613 180.359 170.542 180.15 170.399C179.941 170.257 179.781 170.057 179.669 169.799C179.558 169.539 179.502 169.235 179.502 168.888V168.882C179.502 168.53 179.559 168.226 179.672 167.968C179.787 167.71 179.95 167.511 180.159 167.37C180.368 167.229 180.616 167.159 180.903 167.159C181.192 167.159 181.441 167.229 181.65 167.37C181.859 167.511 182.02 167.71 182.133 167.968C182.246 168.226 182.303 168.53 182.303 168.882V168.888C182.303 169.235 182.246 169.539 182.133 169.799C182.02 170.057 181.859 170.257 181.65 170.399C181.441 170.542 181.192 170.613 180.903 170.613ZM183.756 171H186.323V170.525H184.284V166.772H183.756V171ZM187.166 171H188.617C189.037 171 189.395 170.917 189.692 170.751C189.989 170.583 190.216 170.342 190.374 170.027C190.533 169.711 190.612 169.331 190.612 168.888V168.882C190.612 168.438 190.533 168.06 190.374 167.745C190.216 167.431 189.988 167.19 189.689 167.024C189.392 166.856 189.035 166.772 188.617 166.772H187.166V171ZM187.694 170.525V167.247H188.581C188.894 167.247 189.162 167.312 189.384 167.443C189.607 167.572 189.777 167.76 189.894 168.006C190.013 168.25 190.073 168.544 190.073 168.888V168.894C190.073 169.235 190.014 169.528 189.897 169.772C189.78 170.017 189.61 170.203 189.387 170.332C189.164 170.461 188.896 170.525 188.581 170.525H187.694Z" fill="#939393"/>
<rect x="24.5" y="102.5" width="280" height="78" rx="7.5" stroke="url(#paint8_linear_411_988)"/>
<path d="M25.2578 54H26.4883V49.5088H31.9023V54H33.1328V44.1357H31.9023V48.4014H26.4883V44.1357H25.2578V54ZM34.8623 54H36.1543L39.0527 45.7285H39.4424V44.1357H38.499L34.8623 54ZM36.5098 51.1768H41.7324L41.3496 50.1309H36.8926L36.5098 51.1768ZM42.0605 54H43.3525L39.7158 44.1357H39.1621V45.7285L42.0605 54ZM39.1074 57.0625C39.3353 57.0625 39.529 56.9805 39.6885 56.8164C39.848 56.6569 39.9277 56.4655 39.9277 56.2422C39.9277 56.0143 39.848 55.8206 39.6885 55.6611C39.529 55.5016 39.3353 55.4219 39.1074 55.4219C38.8841 55.4219 38.6904 55.5016 38.5264 55.6611C38.3669 55.8206 38.2871 56.0143 38.2871 56.2422C38.2871 56.4655 38.3669 56.6569 38.5264 56.8164C38.6904 56.9805 38.8841 57.0625 39.1074 57.0625ZM45.082 54H46.2988V46.3506H46.9277L46.1074 45.9199L51.7607 54H52.957V44.1357H51.7402V51.8125H51.1113L51.9316 52.2432L46.2783 44.1357H45.082V54ZM59.5605 54.2324C60.1895 54.2324 60.7614 54.1367 61.2764 53.9453C61.7913 53.7539 62.2334 53.4805 62.6025 53.125C62.9717 52.765 63.2542 52.3366 63.4502 51.8398C63.6507 51.3431 63.751 50.7917 63.751 50.1855V48.9824H59.752V50.0625H62.5205V50.3018C62.5205 50.8577 62.3975 51.3454 62.1514 51.7646C61.9053 52.1839 61.5589 52.512 61.1123 52.749C60.6702 52.9814 60.1553 53.0977 59.5674 53.0977C59.0706 53.0977 58.624 53.0042 58.2275 52.8174C57.8311 52.6305 57.4915 52.3639 57.209 52.0176C56.931 51.6667 56.7168 51.2428 56.5664 50.7461C56.4206 50.2493 56.3477 49.6911 56.3477 49.0713V49.0576C56.3477 48.2419 56.4798 47.5332 56.7441 46.9316C57.0085 46.3301 57.3799 45.8652 57.8584 45.5371C58.3415 45.2044 58.9089 45.0381 59.5605 45.0381C60.2943 45.0381 60.9049 45.2067 61.3926 45.5439C61.8802 45.8812 62.2243 46.3688 62.4248 47.0068L62.4453 47.0752H63.6895L63.6758 47.0068C63.5482 46.3825 63.2975 45.8379 62.9238 45.373C62.5547 44.9082 62.083 44.5482 61.5088 44.293C60.9391 44.0332 60.2897 43.9033 59.5605 43.9033C58.6628 43.9033 57.8766 44.1175 57.2021 44.5459C56.5322 44.9697 56.0127 45.569 55.6436 46.3438C55.2744 47.1139 55.0898 48.0186 55.0898 49.0576V49.0713C55.0898 49.8597 55.1947 50.5706 55.4043 51.2041C55.6139 51.8376 55.9124 52.3799 56.2998 52.8311C56.6917 53.2822 57.1611 53.6286 57.708 53.8701C58.2594 54.1117 58.877 54.2324 59.5605 54.2324ZM66.752 54.0684C66.998 54.0684 67.2077 53.9818 67.3809 53.8086C67.554 53.6309 67.6406 53.4212 67.6406 53.1797C67.6406 52.9336 67.554 52.724 67.3809 52.5508C67.2077 52.3776 66.998 52.291 66.752 52.291C66.5104 52.291 66.3008 52.3776 66.123 52.5508C65.9499 52.724 65.8633 52.9336 65.8633 53.1797C65.8633 53.4212 65.9499 53.6309 66.123 53.8086C66.3008 53.9818 66.5104 54.0684 66.752 54.0684ZM66.752 48.7773C66.998 48.7773 67.2077 48.6908 67.3809 48.5176C67.554 48.3398 67.6406 48.1302 67.6406 47.8887C67.6406 47.6426 67.554 47.4329 67.3809 47.2598C67.2077 47.0866 66.998 47 66.752 47C66.5104 47 66.3008 47.0866 66.123 47.2598C65.9499 47.4329 65.8633 47.6426 65.8633 47.8887C65.8633 48.1302 65.9499 48.3398 66.123 48.5176C66.3008 48.6908 66.5104 48.7773 66.752 48.7773ZM76.459 54H78.5166L81.9346 44.1357H79.9932L77.5459 51.9629H77.4297L74.9893 44.1357H73.0479L76.459 54ZM82.0166 54H83.8623L86.4531 45.9678H86.9795V44.1357H85.5166L82.0166 54ZM83.7803 51.4502H89.2217L88.7637 50.0898H84.2383L83.7803 51.4502ZM89.1602 54H91.0059L87.499 44.1357H86.5693V45.9678L89.1602 54ZM86.0156 43.1582H87.2598L86.125 40.8887H84.4502L86.0156 43.1582ZM92.7012 54H94.4033V47.1982H95.2852L94.0684 46.5762L99.3594 54H100.884V44.1357H99.1885V50.9307H98.3066L99.5234 51.5527L94.2324 44.1357H92.7012V54ZM107.542 54.2461C108.198 54.2461 108.791 54.1481 109.319 53.9521C109.853 53.7562 110.306 53.4759 110.68 53.1113C111.058 52.7467 111.347 52.307 111.548 51.792C111.748 51.277 111.849 50.7005 111.849 50.0625V48.832H107.761V50.1787H110.126V50.3838C110.117 50.8486 110.003 51.2565 109.784 51.6074C109.57 51.9583 109.271 52.2318 108.889 52.4277C108.51 52.6237 108.071 52.7217 107.569 52.7217C107.127 52.7217 106.729 52.6374 106.373 52.4688C106.022 52.3001 105.721 52.0563 105.471 51.7373C105.225 51.4183 105.035 51.0332 104.903 50.582C104.771 50.1309 104.705 49.6227 104.705 49.0576V49.0439C104.705 48.3011 104.819 47.6585 105.047 47.1162C105.275 46.5739 105.598 46.1546 106.018 45.8584C106.441 45.5622 106.94 45.4141 107.515 45.4141C108.148 45.4141 108.681 45.5645 109.114 45.8652C109.547 46.1615 109.843 46.5807 110.003 47.123L110.023 47.1914H111.773L111.76 47.123C111.655 46.4805 111.411 45.9176 111.028 45.4346C110.646 44.9469 110.153 44.5687 109.552 44.2998C108.955 44.0264 108.276 43.8896 107.515 43.8896C106.58 43.8896 105.767 44.1016 105.074 44.5254C104.386 44.9492 103.853 45.5485 103.475 46.3232C103.096 47.0934 102.907 48.0049 102.907 49.0576V49.0713C102.907 49.8688 103.014 50.5866 103.229 51.2246C103.443 51.8581 103.75 52.4004 104.151 52.8516C104.557 53.3027 105.045 53.6491 105.614 53.8906C106.184 54.1276 106.826 54.2461 107.542 54.2461Z" fill="#333333"/>
<defs>
<radialGradient id="paint0_radial_411_988" cx="0" cy="0" r="1" gradientUnits="userSpaceOnUse" gradientTransform="translate(111.037 55.775) rotate(41.8623) scale(187.747 203.201)">
<stop stop-color="#FFECB3"/>
<stop offset="1" stop-color="#FFA616"/>
</radialGradient>
<radialGradient id="paint1_radial_411_988" cx="0" cy="0" r="1" gradientUnits="userSpaceOnUse" gradientTransform="translate(111.037 55.775) rotate(41.8623) scale(187.747 203.201)">
<stop stop-color="#FFECB3"/>
<stop offset="1" stop-color="#FFA616"/>
</radialGradient>
<linearGradient id="paint2_linear_411_988" x1="-17.2665" y1="131.011" x2="60.0388" y2="220.222" gradientUnits="userSpaceOnUse">
<stop stop-color="#FFDB93"/>
<stop offset="0.151042" stop-color="white"/>
<stop offset="0.291667" stop-color="#FFE5A3"/>
<stop offset="0.552083" stop-color="#FFDB93"/>
<stop offset="0.802083" stop-color="white"/>
<stop offset="0.859375" stop-color="#FFDB93"/>
<stop offset="0.911458" stop-color="white"/>
</linearGradient>
<linearGradient id="paint3_linear_411_988" x1="-15.0742" y1="136.813" x2="54.6531" y2="217.069" gradientUnits="userSpaceOnUse">
<stop stop-color="#FFDB93"/>
<stop offset="0.151042" stop-color="white"/>
<stop offset="0.291667" stop-color="#FFE5A3"/>
<stop offset="0.552083" stop-color="#FFDB93"/>
<stop offset="0.802083" stop-color="white"/>
<stop offset="0.859375" stop-color="#FFDB93"/>
<stop offset="0.911458" stop-color="white"/>
</linearGradient>
<linearGradient id="paint4_linear_411_988" x1="-12.8819" y1="143.582" x2="47.8148" y2="214.666" gradientUnits="userSpaceOnUse">
<stop stop-color="#FFDB93"/>
<stop offset="0.151042" stop-color="white"/>
<stop offset="0.291667" stop-color="#FFE5A3"/>
<stop offset="0.552083" stop-color="#FFDB93"/>
<stop offset="0.802083" stop-color="white"/>
<stop offset="0.859375" stop-color="#FFDB93"/>
<stop offset="0.911458" stop-color="white"/>
</linearGradient>
<linearGradient id="paint5_linear_411_988" x1="226.247" y1="-107.033" x2="341.219" y2="15.8891" gradientUnits="userSpaceOnUse">
<stop stop-color="white"/>
<stop offset="0.432292" stop-color="#FFE5A3"/>
<stop offset="0.817708" stop-color="#FFDB93"/>
<stop offset="1" stop-color="#FFEFC6"/>
</linearGradient>
<linearGradient id="paint6_linear_411_988" x1="229.379" y1="-98.5714" x2="333.231" y2="11.4728" gradientUnits="userSpaceOnUse">
<stop stop-color="white"/>
<stop offset="0.432292" stop-color="#FFE5A3"/>
<stop offset="0.817708" stop-color="#FFDB93"/>
<stop offset="1" stop-color="#FFEFC6"/>
</linearGradient>
<linearGradient id="paint7_linear_411_988" x1="232.12" y1="-88.9011" x2="323.047" y2="9.66017" gradientUnits="userSpaceOnUse">
<stop stop-color="white"/>
<stop offset="0.432292" stop-color="#FFE5A3"/>
<stop offset="0.817708" stop-color="#FFDB93"/>
<stop offset="1" stop-color="#FFEFC6"/>
</linearGradient>
<linearGradient id="paint8_linear_411_988" x1="64.5669" y1="169.595" x2="94.1166" y2="65.0058" gradientUnits="userSpaceOnUse">
<stop stop-color="#FFB757"/>
<stop offset="0.104167" stop-color="#FFCC7A"/>
<stop offset="0.333333" stop-color="#FFDE8A"/>
<stop offset="0.51464" stop-color="#FFF5D6"/>
<stop offset="0.658663" stop-color="#FFD98A"/>
<stop offset="0.884101" stop-color="#FFD479"/>
<stop offset="1" stop-color="#FFB048"/>
</linearGradient>
</defs>
</svg>
