<svg width="20" height="22" viewBox="0 0 20 22" fill="none" xmlns="http://www.w3.org/2000/svg">
<path d="M0.147157 1.29998L0.219794 1.21588C0.486123 0.949679 0.902793 0.925571 1.19635 1.14349L1.28045 1.21613L19.7805 19.7248C20.0733 20.0178 20.0732 20.4927 19.7802 20.7855C19.5139 21.0517 19.0972 21.0758 18.8036 20.8579L18.7195 20.7852L12.117 14.1803L5.79572 20.7694C5.28654 21.3 4.42002 20.8564 4.50882 20.1641L4.52698 20.0682L6.294 13.0001H3.75C3.28493 13.0001 2.94055 12.5847 3.008 12.1397L3.02886 12.0441L4.573 6.63234L0.219545 2.27654C-0.0466587 2.01021 -0.0707668 1.59355 0.147157 1.29998L0.219794 1.21588L0.147157 1.29998ZM5.787 7.84634L4.7443 11.5001H7.25458C7.70998 11.5001 8.05222 11.8996 7.99961 12.3377L7.98219 12.432L6.66622 17.6959L11.056 13.1183L5.787 7.84634ZM6.75 1.00011H13.75C14.2278 1.00011 14.5745 1.437 14.487 1.8901L14.4615 1.98728L12.7906 7.00011H17.25C17.874 7.00011 18.2101 7.70705 17.8601 8.18722L17.7911 8.26941L14.1955 12.0151L13.1345 10.9541L15.4908 8.50011H11.75C11.2722 8.50011 10.9255 8.06323 11.013 7.61013L11.0385 7.51294L12.7094 2.50011H7.31573L6.73054 4.54711L5.51754 3.33311L6.02886 1.54407C6.11063 1.25787 6.35224 1.05068 6.6401 1.00817L6.75 1.00011Z" fill="white"/>
</svg>
