<svg width="19" height="18" viewBox="0 0 19 18" fill="none" xmlns="http://www.w3.org/2000/svg">
<path d="M3.75 0C1.95507 0 0.5 1.45507 0.5 3.25V5.25C0.5 5.66421 0.835786 6 1.25 6C1.66421 6 2 5.66421 2 5.25V3.25C2 2.2835 2.7835 1.5 3.75 1.5H5.75C6.16421 1.5 6.5 1.16421 6.5 0.75C6.5 0.335786 6.16421 0 5.75 0H3.75ZM13.25 0C12.8358 0 12.5 0.335786 12.5 0.75C12.5 1.16421 12.8358 1.5 13.25 1.5H15.25C16.2165 1.5 17 2.2835 17 3.25V5.25C17 5.66421 17.3358 6 17.75 6C18.1642 6 18.5 5.66421 18.5 5.25V3.25C18.5 1.45507 17.0449 0 15.25 0H13.25ZM2 12.75C2 12.3358 1.66421 12 1.25 12C0.835786 12 0.5 12.3358 0.5 12.75V14.75C0.5 16.5449 1.95507 18 3.75 18H5.75C6.16421 18 6.5 17.6642 6.5 17.25C6.5 16.8358 6.16421 16.5 5.75 16.5H3.75C2.7835 16.5 2 15.7165 2 14.75V12.75ZM18.5 12.75C18.5 12.3358 18.1642 12 17.75 12C17.3358 12 17 12.3358 17 12.75V14.75C17 15.7165 16.2165 16.5 15.25 16.5H13.25C12.8358 16.5 12.5 16.8358 12.5 17.25C12.5 17.6642 12.8358 18 13.25 18H15.25C17.0449 18 18.5 16.5449 18.5 14.75V12.75ZM5 8.25C4.58579 8.25 4.25 8.58579 4.25 9C4.25 9.41421 4.58579 9.75 5 9.75H14C14.4142 9.75 14.75 9.41421 14.75 9C14.75 8.58579 14.4142 8.25 14 8.25H5Z" fill="white"/>
</svg>
