<svg width="21" height="20" viewBox="0 0 21 20" fill="none" xmlns="http://www.w3.org/2000/svg">
<path d="M0 3C0 1.34315 1.34315 0 3 0H17C18.6569 0 20 1.34315 20 3V12.05C19.8384 12.0172 19.6712 12 19.5 12H18.5V7.5H8.56066L10.2803 9.21967C10.5732 9.51256 10.5732 9.98744 10.2803 10.2803C9.98744 10.5732 9.51256 10.5732 9.21967 10.2803L7.49999 8.56065V13.5H9.20802C9.07422 13.8062 9 14.1444 9 14.5V15H3C1.34315 15 0 13.6569 0 12V3ZM3 1.5C2.17157 1.5 1.5 2.17157 1.5 3V6H2.70803C2.57422 5.69377 2.5 5.35555 2.5 4.99999C2.5 3.61928 3.61928 2.5 4.99999 2.49999C5.35554 2.49999 5.69376 2.57422 5.99999 2.70801V1.5H3ZM7.49999 1.5V2.70803C7.80622 2.57423 8.14444 2.5 8.5 2.5C9.88071 2.5 11 3.61929 11 5C11 5.35555 10.9258 5.69377 10.792 6H18.5V3C18.5 2.17157 17.8284 1.5 17 1.5H7.49999ZM5.99999 13.5V8.56067L4.28033 10.2803C3.98744 10.5732 3.51256 10.5732 3.21967 10.2803C2.92678 9.98744 2.92678 9.51256 3.21967 9.21967L4.93934 7.5H1.5V12C1.5 12.8284 2.17157 13.5 3 13.5H5.99999ZM8.5 6C9.05228 6 9.5 5.55228 9.5 5C9.5 4.44772 9.05228 4 8.5 4C7.94772 4 7.5 4.44772 7.5 5V6H8.5ZM5.99999 4.99581C5.99774 4.44545 5.55089 3.99999 5 3.99999C4.44771 4 4 4.44771 4 4.99999C4 5.55228 4.44771 5.99999 5 5.99999H5.99999V4.99581ZM10 14.5C10 13.6716 10.6716 13 11.5 13H19.5C20.3284 13 21 13.6716 21 14.5V18.5C21 19.3284 20.3284 20 19.5 20H11.5C10.6716 20 10 19.3284 10 18.5V14.5ZM20 15C19.4477 15 19 14.5523 19 14H18C18 15.1046 18.8954 16 20 16V15ZM20 17C18.8954 17 18 17.8954 18 19H19C19 18.4477 19.4477 18 20 18V17ZM12 14C12 14.5523 11.5523 15 11 15V16C12.1046 16 13 15.1046 13 14H12ZM13 19C13 17.8954 12.1046 17 11 17V18C11.5523 18 12 18.4477 12 19H13ZM17.25 16.5C17.25 15.5335 16.4665 14.75 15.5 14.75C14.5335 14.75 13.75 15.5335 13.75 16.5C13.75 17.4665 14.5335 18.25 15.5 18.25C16.4665 18.25 17.25 17.4665 17.25 16.5Z" fill="black" fill-opacity="0.6"/>
</svg>
