<svg width="20" height="20" viewBox="0 0 20 20" fill="none" xmlns="http://www.w3.org/2000/svg">
<path d="M15.9999 0C16.1738 0 16.3411 0.0603719 16.4742 0.169024L16.5497 0.239913L19.822 3.76824L19.8527 3.80714C19.9544 3.94281 20.0003 4.09665 20.0003 4.24775L19.9988 6.16674C19.9988 7.16092 19.6202 8.06668 18.9994 8.74776L18.9986 19.25C18.9986 19.6297 18.7165 19.9435 18.3504 19.9932L18.2486 20H1.75113C1.37144 20 1.05764 19.7178 1.00798 19.3518L1.00113 19.25L1.00035 8.74776C0.427293 8.11907 0.0606664 7.29893 0.00765324 6.39453L0.000995637 6.16674L0.000798226 4.29097C-0.00727223 4.15366 0.0223811 4.01238 0.0967309 3.88313L0.161993 3.78767L0.201167 3.74193L3.45006 0.239913C3.56833 0.112432 3.7264 0.0308129 3.89656 0.00714779L3.99989 0H15.9999ZM13.0818 8.44208L13.0699 8.45983C12.371 9.39439 11.2555 9.99931 9.99871 9.99931C8.73488 9.99931 7.61393 9.38757 6.9158 8.44405C6.21835 9.38757 5.0974 9.99931 3.83357 9.99931C3.36446 9.99931 2.91504 9.91503 2.49962 9.76078L2.50089 18.499H3.99951L3.99989 11.751C3.99989 11.3713 4.28204 11.0575 4.64812 11.0079L4.74989 11.001H9.24584C9.62553 11.001 9.93933 11.2832 9.98899 11.6492L9.99584 11.751L9.99551 18.499H17.4979L17.4981 9.76153C17.0833 9.9153 16.6346 9.99931 16.1662 9.99931C14.9015 9.99931 13.7799 9.38672 13.0818 8.44208ZM8.49489 12.501H5.49989V18.499H8.49489V12.501ZM15.2546 11.001C15.6343 11.001 15.9481 11.2832 15.9978 11.6492L16.0046 11.751V15.253C16.0046 15.6327 15.7225 15.9465 15.3564 15.9962L15.2546 16.003H11.7532C11.3735 16.003 11.0597 15.7209 11.01 15.3548L11.0032 15.253V11.751C11.0032 11.3713 11.2853 11.0575 11.6514 11.0079L11.7532 11.001H15.2546ZM14.5039 12.501H12.5029V14.503H14.5039V12.501ZM6.16589 5.002H1.50089L1.501 6.16674L1.50717 6.33777L1.53555 6.569L1.5683 6.72528L1.61768 6.89726L1.67203 7.0451L1.71271 7.1391C1.74388 7.20697 1.77821 7.27309 1.81551 7.33727L1.91846 7.49873L1.97274 7.57344L2.10151 7.72909L2.24329 7.87318L2.33953 7.95811L2.38162 7.99243C2.69615 8.2429 3.07686 8.4138 3.49329 8.47467L3.67387 8.49393L3.83357 8.49931C5.06813 8.49931 6.07869 7.54019 6.16076 6.32644L6.16614 6.16674L6.16589 5.002ZM12.3309 5.002H7.66589L7.66614 6.16674C7.66614 7.34763 8.54366 8.32356 9.68219 8.47801L9.83901 8.49393L9.99871 8.49931C11.2333 8.49931 12.2438 7.54019 12.3259 6.32644L12.3313 6.16674L12.3309 5.002ZM18.4979 5.002H13.8329L13.8336 6.16674C13.8336 7.34763 14.7112 8.32356 15.8497 8.47801L16.0065 8.49393L16.1662 8.49931C16.7305 8.49931 17.248 8.29892 17.6514 7.96542L17.7412 7.88731L17.857 7.7736L18.0032 7.60441C18.0572 7.53545 18.1075 7.46337 18.1536 7.38849L18.2571 7.20179L18.32 7.06383L18.3783 6.90873L18.4081 6.81314L18.4463 6.66108L18.4747 6.50352L18.4927 6.33678L18.4988 6.16674L18.4979 5.002ZM7.06151 1.499H4.32689L2.46889 3.502H6.44551L7.06151 1.499ZM11.3685 1.499H8.63051L8.01451 3.502H11.9845L11.3685 1.499ZM15.6719 1.499H12.9375L13.5535 3.502H17.5299L15.6719 1.499Z" fill="black" fill-opacity="0.6"/>
</svg>
